<?xml version="1.0" standalone="no"?>
<!DOCTYPE svg PUBLIC "-//W3C//DTD SVG 20010904//EN"
 "http://www.w3.org/TR/2001/REC-SVG-20010904/DTD/svg10.dtd">
<svg version="1.0" xmlns="http://www.w3.org/2000/svg"
 width="640.000000pt" height="640.000000pt" viewBox="0 0 640.000000 640.000000"
 preserveAspectRatio="xMidYMid meet">

<g transform="translate(0.000000,640.000000) scale(0.100000,-0.100000)"
fill="#000000" stroke="none">
<path d="M3009 5992 c-387 -199 -1077 -551 -1464 -747 -225 -114 -420 -218
-432 -231 l-23 -25 0 -1452 c0 -1132 3 -1458 13 -1477 8 -17 47 -43 115 -78
56 -29 102 -59 102 -66 0 -14 -11 -69 -105 -506 -31 -146 -69 -326 -85 -400
-16 -74 -49 -231 -74 -349 -25 -118 -46 -221 -46 -228 0 -8 13 -28 29 -44 l29
-29 1824 0 c1417 1 1827 3 1839 13 33 26 37 39 130 482 16 77 42 201 59 275
16 74 59 277 96 450 36 173 70 325 75 337 5 15 40 38 98 67 49 25 97 56 105
68 14 20 16 169 16 1478 0 1287 -2 1458 -15 1477 -9 13 -190 111 -423 229
-224 114 -683 348 -1021 521 -338 173 -626 317 -641 319 -20 4 -68 -16 -201
-84z m322 -175 c68 -35 255 -130 414 -212 160 -81 405 -206 545 -278 140 -72
386 -197 545 -278 l290 -148 3 -1375 2 -1376 -120 -60 c-66 -33 -126 -60 -134
-60 -11 0 -15 26 -21 112 -13 221 -67 490 -126 630 -43 102 -64 162 -84 242
-29 119 -76 186 -124 173 -16 -4 -24 11 -56 94 -80 212 -158 299 -267 299 -21
0 -32 10 -56 53 -51 91 -153 182 -269 241 l-53 26 0 54 c0 71 -28 214 -48 248
-16 27 -15 29 8 45 96 67 179 247 166 357 -3 28 -23 87 -44 131 -21 44 -47
103 -57 130 -89 246 -258 446 -448 530 -66 28 -203 60 -335 76 -183 23 -370
-15 -442 -90 -19 -21 -62 -92 -95 -158 l-60 -121 -89 -17 c-110 -20 -195 -54
-252 -101 -52 -42 -75 -81 -77 -134 -3 -81 58 -109 236 -110 l127 0 0 -25 c0
-14 10 -45 21 -68 36 -70 39 -93 22 -161 l-17 -63 31 -50 c39 -63 56 -114 77
-223 23 -123 43 -190 60 -209 9 -10 38 -28 65 -40 l48 -23 -44 -44 c-45 -46
-134 -177 -217 -322 -169 -296 -301 -619 -400 -977 -135 -489 -138 -497 -155
-503 -16 -5 -14 6 14 88 26 76 115 401 115 419 0 13 -226 241 -239 241 -8 0
-11 -114 -11 -375 0 -368 0 -375 -20 -375 -20 0 -20 7 -20 404 l0 404 -102
104 c-57 58 -114 117 -127 131 l-25 27 2 388 c1 213 -1 398 -4 410 -6 22 -13
18 -95 -64 l-89 -89 0 -792 0 -793 80 -40 c44 -22 84 -40 90 -40 7 0 10 119
10 351 0 336 -1 352 -20 376 -24 31 -26 60 -3 85 24 27 68 23 92 -8 26 -34 26
-36 -4 -72 l-25 -30 0 -365 c0 -338 1 -367 18 -376 15 -9 15 -10 -6 -11 -12 0
-76 27 -142 60 l-120 60 0 1375 0 1374 213 107 c116 59 248 126 292 149 44 23
242 125 440 226 198 100 500 254 670 341 171 86 313 158 316 158 4 0 63 -29
130 -63z m-395 -404 c-3 -4 -43 -17 -89 -30 -141 -41 -145 -45 -202 -160 -41
-84 -54 -102 -72 -103 -13 0 -23 3 -23 8 0 15 93 188 113 209 26 29 84 51 178
68 88 16 105 17 95 8z m419 -74 c62 -23 85 -42 85 -69 0 -18 -4 -17 -57 6 -52
23 -92 56 -93 77 0 10 3 9 65 -14z m206 -136 c87 -92 93 -135 9 -62 -42 36
-60 59 -60 75 0 33 10 30 51 -13z m155 -200 c8 -18 14 -40 14 -50 -1 -18 -69
103 -69 122 -1 15 39 -36 55 -72z m-1196 -59 c0 -9 -60 -114 -65 -114 -2 0 4
19 14 43 10 23 21 50 24 60 6 16 27 25 27 11z m1323 -244 c47 -94 49 -143 6
-245 -17 -40 -37 -80 -46 -87 -14 -11 -15 -11 -6 7 17 32 34 128 34 194 1 51
-6 74 -37 138 -30 61 -39 90 -41 142 l-3 66 28 -71 c16 -39 45 -103 65 -144z
m-639 64 c-24 -55 -24 -188 0 -232 22 -43 15 -51 -16 -18 l-23 26 -114 -140
c-63 -77 -118 -140 -123 -140 -10 0 -10 0 135 179 l98 120 -7 49 c-7 54 13
139 42 180 23 33 27 21 8 -24z m-693 -267 c-8 -21 -4 -39 23 -99 19 -40 37
-89 41 -108 3 -19 20 -93 37 -165 29 -123 33 -132 72 -169 l41 -40 -45 26
c-25 14 -51 38 -58 53 -8 14 -28 97 -46 183 -20 97 -43 177 -59 209 -29 57
-34 93 -15 123 16 26 21 19 9 -13z m394 -261 c0 -15 -14 -24 -61 -39 -65 -21
-94 -18 -94 8 0 16 56 46 82 44 7 0 -3 -6 -22 -13 -36 -13 -54 -46 -25 -46 23
0 85 27 85 37 0 5 -6 15 -12 22 -11 10 -7 12 17 9 22 -2 30 -8 30 -22z m807
-53 c23 -26 37 -86 44 -188 6 -81 4 -92 -13 -107 -19 -17 -19 -15 -31 89 -8
70 -20 123 -36 159 -25 55 -25 55 15 63 3 0 13 -7 21 -16z m106 -357 c7 -34
-13 -37 -44 -5 l-29 31 35 -4 c24 -2 36 -9 38 -22z m-980 -12 c-26 -13 -62
-39 -79 -57 -66 -69 -307 -523 -384 -723 -32 -82 -48 -109 -94 -156 -30 -32
-56 -56 -58 -54 -6 6 135 353 181 444 93 186 270 474 318 519 29 27 92 52 133
52 29 0 28 -1 -17 -25z m1077 -30 c26 -17 30 -30 16 -53 -15 -23 -51 4 -51 39
0 35 2 36 35 14z m156 -148 c16 -21 29 -43 29 -49 0 -7 -51 29 -103 74 -5 4
-6 17 -2 29 7 21 7 21 27 3 12 -10 34 -36 49 -57z m222 -156 c43 -46 67 -92
114 -213 l34 -90 -24 -25 -25 -24 -27 83 c-45 134 -81 205 -131 259 l-47 50
35 0 c29 0 43 -8 71 -40z m263 -381 c9 -18 26 -73 39 -123 21 -83 22 -92 7
-109 -15 -16 -19 -9 -64 110 -26 70 -46 134 -43 141 9 24 44 13 61 -19z
m-2036 -146 c-136 -143 -226 -260 -285 -373 -35 -68 -52 -89 -84 -108 -23 -12
-41 -20 -41 -16 0 4 20 48 43 98 80 168 233 346 396 461 42 30 78 55 79 55 2
0 -46 -53 -108 -117z m2174 -262 c58 -178 86 -335 93 -515 6 -152 5 -158 -13
-154 -17 3 -20 18 -30 133 -19 218 -33 294 -81 447 -41 132 -45 150 -33 177 7
17 16 28 21 26 4 -3 24 -55 43 -114z m-2443 -267 c-38 -47 -85 -116 -105 -152
-25 -46 -50 -78 -83 -101 -36 -26 -45 -30 -39 -15 4 10 15 45 24 78 20 71 74
135 185 218 43 32 81 58 83 58 2 0 -27 -39 -65 -86z m-62 -242 c-35 -37 -78
-89 -94 -115 -24 -37 -36 -47 -57 -47 -16 0 -28 2 -28 4 0 17 114 136 169 177
36 27 68 49 70 49 2 0 -25 -30 -60 -68z m-90 -449 c42 -32 79 -61 82 -66 3 -4
-10 -76 -28 -160 -18 -83 -33 -153 -33 -154 0 -2 -37 -24 -81 -50 l-81 -47 33
-31 c19 -17 45 -38 59 -48 l25 -17 -45 -221 c-36 -182 -42 -226 -33 -250 l11
-29 -129 0 -129 0 24 38 c18 27 39 101 75 267 56 251 56 255 40 255 -9 0 -87
-43 -136 -75 -6 -4 -83 -391 -83 -417 0 -16 5 -38 10 -49 10 -18 6 -19 -120
-19 l-131 0 24 42 c24 42 72 245 164 696 l37 184 63 36 c35 20 63 40 63 44 0
4 -24 8 -53 8 l-53 0 4 39 c2 21 -1 48 -7 60 l-12 21 182 0 182 0 76 -57z
m652 -5 c43 -34 79 -68 79 -77 0 -9 -21 -108 -46 -221 -76 -344 -144 -673
-144 -703 0 -16 5 -37 10 -48 10 -18 6 -19 -120 -19 l-131 0 24 43 c16 27 43
123 76 272 28 127 51 233 51 238 0 14 -23 6 -89 -32 l-68 -40 -41 -210 c-33
-163 -40 -215 -32 -236 5 -14 10 -28 10 -31 0 -2 -59 -4 -131 -4 l-130 0 25
32 c24 33 75 246 166 698 17 85 34 163 36 173 3 9 35 34 71 55 l65 37 -54 5
-53 5 0 40 c0 22 -4 50 -8 63 l-8 22 181 0 181 0 80 -62z m455 40 c-9 -13 -20
-33 -25 -44 -9 -21 -81 -344 -81 -364 0 -7 23 -10 62 -8 l63 3 39 180 c32 149
37 186 29 217 l-10 38 128 0 c71 0 129 -2 129 -5 0 -3 -10 -19 -22 -35 -22
-30 -62 -202 -175 -740 -24 -118 -50 -220 -56 -227 -7 -6 -56 -37 -109 -67
l-97 -56 -181 0 -181 0 25 33 c18 24 34 73 58 185 38 172 21 149 170 231 61
34 76 38 72 24 -4 -21 -54 -265 -54 -267 0 -1 -29 -18 -65 -37 -36 -18 -65
-37 -65 -41 0 -5 54 -8 119 -8 66 0 122 3 124 8 5 7 97 411 97 425 0 4 -29 7
-64 7 -63 0 -64 1 -150 66 -60 46 -85 71 -82 83 3 9 21 93 41 187 28 135 34
176 25 198 -5 15 -10 29 -10 32 0 2 59 4 131 4 l131 0 -16 -22z m1532 5 c-27
-31 -46 -77 -58 -143 -7 -36 -17 -72 -21 -81 -6 -13 -199 -129 -213 -129 -5 0
29 159 35 164 2 1 33 19 69 39 l65 37 -126 0 -125 0 -48 -217 c-26 -120 -63
-290 -81 -377 -19 -88 -36 -169 -39 -180 -3 -13 -30 -34 -65 -54 -33 -18 -63
-37 -66 -43 -4 -5 42 -9 118 -9 l124 0 45 203 c24 111 41 203 37 205 -5 2 -18
-2 -29 -8 -12 -6 -23 -10 -25 -8 -1 2 0 23 4 48 l6 44 140 82 c109 64 141 78
143 65 1 -9 -7 -56 -18 -106 -27 -115 -90 -415 -90 -426 0 -4 -33 -27 -72 -51
l-73 -43 58 -3 57 -3 0 -40 c0 -22 5 -49 10 -60 10 -19 4 -19 -285 -19 -271 0
-295 1 -280 16 8 9 22 28 29 42 13 27 81 328 152 680 l37 183 66 37 66 37 -55
5 -55 5 3 42 c2 23 -2 51 -8 62 l-11 21 297 0 c282 0 296 -1 282 -17z m-822
-703 c-3 -16 -9 -43 -12 -60 l-6 -30 -207 0 c-114 0 -210 2 -213 5 -5 5 5 60
18 103 2 9 54 12 214 12 l212 0 -6 -30z"/>
<path d="M3103 5807 l-83 -41 0 -131 0 -131 103 -17 c56 -9 108 -17 115 -17 9
0 12 43 12 180 0 167 -1 180 -19 190 -29 15 -38 13 -128 -33z"/>
<path d="M3300 5626 l0 -174 53 -17 c28 -9 67 -25 85 -36 18 -10 37 -19 43
-19 17 0 9 47 -11 65 -32 29 -24 86 14 104 25 12 31 11 55 -6 34 -26 40 -72
11 -98 -13 -12 -20 -31 -20 -55 0 -32 10 -46 88 -126 48 -49 100 -105 114
-124 l26 -35 51 50 51 50 -2 159 -3 160 -270 138 c-148 76 -273 138 -277 138
-5 0 -8 -78 -8 -174z"/>
<path d="M2669 5587 c-152 -78 -302 -156 -335 -173 l-59 -31 -3 -147 c-2 -100
1 -146 8 -146 6 0 30 4 53 9 23 6 59 13 79 16 36 6 39 10 87 108 71 147 103
191 157 216 61 29 154 52 239 60 l70 6 3 113 c2 86 0 112 -10 111 -7 0 -137
-64 -289 -142z"/>
<path d="M3910 5343 l0 -147 -66 -67 -66 -66 32 -64 c18 -35 43 -92 56 -126
13 -34 40 -95 61 -135 52 -101 56 -176 17 -288 l-28 -81 174 -174 c96 -96 178
-175 182 -175 5 0 8 289 8 643 l0 643 -55 27 -55 27 0 -478 c0 -405 2 -481 15
-498 20 -27 18 -61 -5 -84 -25 -25 -51 -25 -80 -2 -29 24 -30 70 -1 93 21 17
21 20 21 507 l0 490 -99 51 c-55 28 -102 51 -105 51 -3 0 -6 -66 -6 -147z"/>
<path d="M2078 5284 l-128 -64 0 -413 0 -412 -85 -85 -85 -85 0 -375 0 -375
78 -78 c42 -42 82 -77 87 -77 6 0 32 23 59 51 l49 50 -36 37 -37 38 0 320 c0
308 -1 322 -20 339 -11 10 -20 29 -20 42 0 28 33 63 60 63 24 0 70 -42 70 -64
0 -8 -11 -28 -25 -44 l-25 -30 0 -299 0 -299 35 -34 34 -33 128 127 127 126
-62 63 -62 62 0 425 c0 234 0 433 0 443 0 12 -8 17 -26 17 -48 0 -114 22 -138
47 -72 72 -22 197 112 276 l54 32 -1 108 c0 59 0 121 -1 137 0 17 -3 30 -7 29
-5 0 -65 -29 -135 -65z"/>
<path d="M4328 4623 l-3 -658 60 -62 c33 -35 64 -63 70 -63 7 0 21 10 33 23
l22 23 0 652 0 652 -90 45 -90 45 -2 -657z"/>
<path d="M1708 5097 l-178 -92 0 -477 c0 -263 3 -478 8 -478 4 0 49 42 100 93
l92 92 0 301 c0 288 -1 302 -20 319 -39 36 -10 105 44 105 32 0 69 -46 60 -74
-4 -12 -13 -28 -20 -37 -11 -12 -14 -70 -14 -282 0 -147 4 -267 8 -267 4 0 31
24 60 53 l52 53 0 392 c0 216 -3 392 -7 391 -5 0 -88 -42 -185 -92z"/>
<path d="M4557 5154 c-4 -4 -7 -297 -7 -651 l0 -643 -30 -32 -29 -33 137 -137
137 -138 -132 -132 c-111 -111 -132 -137 -127 -155 5 -16 14 -23 31 -23 24 0
76 -44 98 -84 9 -16 22 -6 113 82 l102 99 0 294 0 295 -70 69 -70 69 0 526 0
525 -67 35 c-84 44 -78 42 -86 34z"/>
<path d="M4760 4552 l0 -508 38 -37 c21 -20 41 -37 45 -37 4 0 7 137 7 304 0
258 -2 305 -15 316 -23 19 -19 76 7 94 31 22 54 20 78 -6 26 -28 26 -63 0 -85
-19 -17 -20 -30 -20 -353 l0 -336 38 -37 c21 -20 43 -37 50 -37 10 0 12 122
12 548 0 301 -4 552 -8 558 -4 6 -58 37 -119 68 l-113 56 0 -508z"/>
<path d="M1381 4929 l-81 -42 0 -533 c0 -294 3 -534 8 -534 4 0 46 38 92 85
l85 85 2 490 c2 416 1 490 -11 490 -8 0 -51 -19 -95 -41z"/>
<path d="M5040 4337 l0 -573 29 -28 c16 -15 31 -24 34 -19 3 5 6 268 6 585 l1
577 -22 15 c-50 35 -48 54 -48 -557z"/>
<path d="M2277 4713 c-4 -3 -7 -198 -7 -433 l0 -426 46 -52 c25 -29 52 -52 58
-52 7 0 54 42 104 93 87 89 91 95 83 124 -5 17 -21 90 -36 164 -21 105 -36
150 -67 208 -43 79 -42 69 -22 195 5 29 0 52 -19 95 -14 31 -28 64 -31 74 -4
13 -16 17 -54 17 -27 0 -52 -3 -55 -7z"/>
<path d="M3838 4270 c-47 -48 -48 -49 -34 -82 13 -30 25 -100 41 -230 4 -27
10 -48 14 -48 5 0 53 -30 107 -66 l98 -65 95 95 95 95 -175 176 c-97 96 -180
175 -185 174 -5 0 -30 -22 -56 -49z"/>
<path d="M1622 4067 l-92 -92 0 -430 0 -430 98 -98 c53 -53 101 -97 105 -97 4
0 7 42 7 93 l0 92 80 80 c44 44 80 87 80 95 0 8 -39 53 -85 99 l-85 84 0 348
c0 192 -3 349 -8 349 -4 0 -49 -42 -100 -93z"/>
<path d="M4188 3842 c-49 -48 -88 -92 -88 -98 0 -6 12 -27 28 -47 15 -19 35
-49 44 -66 9 -17 25 -31 35 -31 10 0 63 45 118 100 l100 101 -66 64 c-37 36
-71 65 -75 65 -5 0 -48 -40 -96 -88z"/>
<path d="M2501 3806 l-93 -94 37 -41 c21 -22 41 -41 46 -41 4 0 34 39 65 86
32 48 70 102 86 120 l29 32 -23 16 c-12 9 -29 16 -38 16 -8 0 -57 -42 -109
-94z"/>
<path d="M4900 3563 l0 -268 -120 -120 -119 -120 23 -93 c13 -51 31 -103 38
-115 8 -12 30 -67 48 -122 18 -55 36 -103 39 -108 4 -4 49 35 99 87 l92 93 -1
472 0 473 -41 44 c-22 24 -44 44 -49 44 -5 0 -9 -120 -9 -267z"/>
<path d="M4370 3675 c-89 -90 -88 -87 -38 -115 24 -14 82 -105 118 -183 17
-37 33 -67 37 -67 14 0 203 196 203 210 0 14 -218 240 -230 240 -3 0 -44 -38
-90 -85z"/>
<path d="M5040 3232 l0 -457 -110 -110 c-86 -85 -110 -114 -105 -130 16 -59
46 -275 52 -372 l6 -112 107 54 c59 30 110 61 113 69 4 9 6 340 7 735 l0 720
-26 30 c-14 17 -30 31 -35 31 -5 0 -9 -189 -9 -458z"/>
<path d="M2247 3552 c-64 -64 -117 -122 -117 -127 0 -13 158 -171 163 -164 3
2 17 29 32 59 15 30 54 102 87 159 l60 103 -43 44 c-24 24 -48 44 -54 44 -6 0
-63 -53 -128 -118z"/>
<path d="M2030 3335 l-54 -55 109 -110 c60 -61 114 -109 119 -107 6 2 23 34
38 72 l29 69 -93 93 -93 93 -55 -55z"/>
<path d="M1857 3161 l-77 -79 0 -108 0 -109 130 -130 c71 -71 132 -126 135
-123 6 6 123 339 132 376 5 19 -14 42 -111 138 -64 63 -120 114 -124 114 -5 0
-43 -35 -85 -79z"/>
<path d="M1865 1658 c-11 -30 -85 -392 -81 -395 2 -3 35 13 73 34 l68 39 33
154 c18 85 30 160 28 167 -7 17 -115 18 -121 1z"/>
<path d="M2506 1643 c-17 -62 -78 -374 -74 -378 4 -4 114 53 136 71 3 2 72
312 72 322 0 1 -29 2 -64 2 -53 0 -66 -3 -70 -17z"/>
</g>
</svg>
